<?xml version="1.0" encoding="utf-8"?>
<!-- Generator: Adobe Illustrator 22.1.0, SVG Export Plug-In . SVG Version: 6.00 Build 0)  -->
<svg version="1.1" id="Layer_1" xmlns="http://www.w3.org/2000/svg" xmlns:xlink="http://www.w3.org/1999/xlink" x="0px" y="0px"
	 viewBox="0 0 1094.9 1500" style="enable-background:new 0 0 1094.9 1500;" xml:space="preserve">
<style type="text/css">
	.st0{fill:#E2B150;}
</style>
<path class="st0" d="M365,500v371.2L547.5,1000L730,871.2V500H365z M411.2,553.8c-7.5,0-13.8-6.3-13.8-13.8
	c0-7.5,6.3-13.8,13.8-13.8c7.5,0,13.8,6.3,13.8,13.8C425,547.5,418.7,553.8,411.2,553.8z M683.2,553.8c-7.5,0-13.8-6.3-13.8-13.8
	c0-7.5,6.3-13.8,13.8-13.8c7.5,0,13.8,6.3,13.8,13.8C697,547.5,691.1,553.8,683.2,553.8z"/>
</svg>
