<?xml version="1.0" encoding="utf-8"?>
<!-- Generator: Adobe Illustrator 22.1.0, SVG Export Plug-In . SVG Version: 6.00 Build 0)  -->
<svg version="1.1" id="Layer_1" xmlns="http://www.w3.org/2000/svg" xmlns:xlink="http://www.w3.org/1999/xlink" x="0px" y="0px"
	 viewBox="0 0 1094.9 1500" style="enable-background:new 0 0 1094.9 1500;" xml:space="preserve">
<style type="text/css">
	.st0{fill:#E2B150;}
</style>
<path class="st0" d="M362,493.1v499.1l45.5-59.1l46,59.9l46-59.9l46,59.9l46-59.9l46,59.9l46-59.9l45.5,59.1V493.1H362z
	 M409.6,551.1c-7.5,0-13.8-6.3-13.8-13.8c0-7.5,6.3-13.8,13.8-13.8c7.5,0,13.8,6.3,13.8,13.8C423.4,544.8,417.1,551.1,409.6,551.1z
	 M681.4,551.1c-7.5,0-13.8-6.3-13.8-13.8c0-7.5,6.3-13.8,13.8-13.8c7.5,0,13.8,6.3,13.8,13.8C695.2,544.8,689.3,551.1,681.4,551.1z"
	/>
</svg>
