<?xml version="1.0" encoding="utf-8"?>
<!-- Generator: Adobe Illustrator 22.1.0, SVG Export Plug-In . SVG Version: 6.00 Build 0)  -->
<svg version="1.1" id="Layer_1" xmlns="http://www.w3.org/2000/svg" xmlns:xlink="http://www.w3.org/1999/xlink" x="0px" y="0px"
	 viewBox="0 0 1094.9 1500" style="enable-background:new 0 0 1094.9 1500;" xml:space="preserve">
<style type="text/css">
	.st0{fill:#E2B150;}
</style>
<path class="st0" d="M362.2,499.5v455.4c0.9,24.7,21,44.6,46,44.6c22.5,0,41.2-16.2,45.2-37.5c4,21.3,22.7,37.5,45.2,37.5
	c22.5,0,41.2-16.2,45.2-37.5c4,21.3,22.7,37.5,45.2,37.5c22.5,0,41.2-16.2,45.2-37.5c4,21.3,22.7,37.5,45.2,37.5
	c25,0,45.2-19.9,46-44.6V499.5H362.2z M407.8,567.5c-7.5,0-13.8-6.3-13.8-13.8c0-7.5,6.3-13.8,13.8-13.8c7.5,0,13.8,6.3,13.8,13.8
	C421.6,561.2,415.3,567.5,407.8,567.5z M679.8,567.5c-7.5,0-13.8-6.3-13.8-13.8c0-7.5,6.3-13.8,13.8-13.8c7.5,0,13.8,6.3,13.8,13.8
	C693.6,561.2,687.7,567.5,679.8,567.5z"/>
</svg>
