<?xml version="1.0" encoding="utf-8"?>
<!-- Generator: Adobe Illustrator 22.1.0, SVG Export Plug-In . SVG Version: 6.00 Build 0)  -->
<svg version="1.1" id="Layer_1" xmlns="http://www.w3.org/2000/svg" xmlns:xlink="http://www.w3.org/1999/xlink" x="0px" y="0px"
	 viewBox="0 0 1094.9 1500" style="enable-background:new 0 0 1094.9 1500;" xml:space="preserve">
<style type="text/css">
	.st0{fill:#E2B150;}
</style>
<path class="st0" d="M362.9,496.7v317.5c0,100.6,81.6,182.5,182.5,182.5c100.6,0,182.5-81.6,182.5-182.5V496.7H362.9z M409.4,554.1
	c-7.5,0-13.8-6.3-13.8-13.8c0-7.5,6.3-13.8,13.8-13.8s13.8,6.3,13.8,13.8C423.2,547.7,416.9,554.1,409.4,554.1z M681.3,554.1
	c-7.5,0-13.8-6.3-13.8-13.8c0-7.5,6.3-13.8,13.8-13.8c7.5,0,13.8,6.3,13.8,13.8C695.1,547.7,689.2,554.1,681.3,554.1z"/>
</svg>
