<?xml version="1.0" encoding="utf-8"?>
<!-- Generator: Adobe Illustrator 22.1.0, SVG Export Plug-In . SVG Version: 6.00 Build 0)  -->
<svg version="1.1" id="Layer_1" xmlns="http://www.w3.org/2000/svg" xmlns:xlink="http://www.w3.org/1999/xlink" x="0px" y="0px"
	 viewBox="0 0 1544.7 1500" style="enable-background:new 0 0 1544.7 1500;" xml:space="preserve">
<style type="text/css">
	.st0{fill:#EA7E2D;}
</style>
<path class="st0" d="M926.1,609l-39.5-1.4l-13.6-37.2c-34.1-93.8-167.2-93.8-201.3,0L658,607.6l-39.5,1.4
	c-99.8,3.4-141,129.9-62.3,191.4l31.3,24.5L576.6,863c-27.6,96.1,79.9,174.3,162.9,118.3l33-22.2l33,22.2
	c83,55.7,190.5-22.2,162.9-118.3l-10.8-38.1l31.3-24.5C1067.1,739,1025.9,612.7,926.1,609z M629.4,666.8c-10,0-18.4-8.4-18.4-18.4
	c0-10,8.4-18.4,18.4-18.4s18.4,8.4,18.4,18.4C647.8,658.4,639.4,666.8,629.4,666.8z M915.3,666.8c-10,0-18.4-8.4-18.4-18.4
	c0-10,8.4-18.4,18.4-18.4c10,0,18.4,8.4,18.4,18.4C933.7,658.4,925.8,666.8,915.3,666.8z"/>
</svg>
