<?xml version="1.0" encoding="utf-8"?>
<!-- Generator: Adobe Illustrator 22.1.0, SVG Export Plug-In . SVG Version: 6.00 Build 0)  -->
<svg version="1.1" id="Layer_1" xmlns="http://www.w3.org/2000/svg" xmlns:xlink="http://www.w3.org/1999/xlink" x="0px" y="0px"
	 viewBox="0 0 1544.7 1500" style="enable-background:new 0 0 1544.7 1500;" xml:space="preserve">
<style type="text/css">
	.st0{fill:#EA7E2D;}
</style>
<path class="st0" d="M757.7,499c-138.1,0-250,111.9-250,250s111.9,250,250,250c138.1,0,250-111.9,250-250S895.8,499,757.7,499z
	 M642,595.1c-8.8,0-16.2-7.4-16.2-16.2s7.4-16.2,16.2-16.2c8.8,0,16.2,7.4,16.2,16.2S650.7,595.1,642,595.1z M873.5,595.1
	c-8.8,0-16.2-7.4-16.2-16.2s7.4-16.2,16.2-16.2c8.8,0,16.2,7.4,16.2,16.2S882.8,595.1,873.5,595.1z"/>
</svg>
