<?xml version="1.0" encoding="utf-8"?>
<!-- Generator: Adobe Illustrator 22.1.0, SVG Export Plug-In . SVG Version: 6.00 Build 0)  -->
<svg version="1.1" id="Layer_1" xmlns="http://www.w3.org/2000/svg" xmlns:xlink="http://www.w3.org/1999/xlink" x="0px" y="0px"
	 viewBox="0 0 1544.7 1500" style="enable-background:new 0 0 1544.7 1500;" xml:space="preserve">
<style type="text/css">
	.st0{fill:#EA7E2D;}
</style>
<g>
	<g>
		<path class="st0" d="M984.5,780.2c12.5-4.3,21.3-16.2,21.3-30.1c0-13.9-8.8-25.9-21.3-30.1c10.8-7.4,16.5-21,12.8-34.7
			c-3.7-13.4-15.3-22.4-28.4-23.6c8.5-9.9,10.5-24.7,3.4-36.6c-7.1-11.9-20.7-17.9-33.5-15.3c5.7-11.9,3.7-26.4-6.3-36.4
			s-24.4-11.9-36.4-6.3c2.6-13.1-3.4-26.7-15.3-33.5c-11.9-7.1-26.7-5.1-36.6,3.4c-0.9-13.1-9.9-24.7-23.6-28.4
			c-13.4-3.7-27.3,2-34.7,12.8c-4.3-12.5-16.2-21.3-30.1-21.3s-25.9,8.8-30.1,21.3c-7.4-10.8-21-16.5-34.7-12.8
			c-13.4,3.7-22.4,15.3-23.6,28.4c-9.9-8.5-24.7-10.5-36.6-3.4c-11.9,7.1-17.9,20.7-15.3,33.5c-11.9-5.7-26.4-3.7-36.4,6.3
			s-11.9,24.4-6.2,36.4c-13.1-2.6-26.7,3.4-33.5,15.3c-7.1,11.9-5.1,26.7,3.4,36.6c-13.1,0.9-24.7,9.9-28.4,23.6
			c-3.7,13.4,2,27.3,12.8,34.7c-12.5,4.3-21.3,16.2-21.3,30.1c0,13.9,8.8,25.9,21.3,30.1c-10.8,7.4-16.5,21-12.8,34.7
			c3.7,13.4,15.3,22.4,28.4,23.6c-8.5,9.9-10.5,24.7-3.4,36.6c7.1,11.9,20.7,17.9,33.5,15.3c-5.7,11.9-3.7,26.4,6.2,36.4
			s24.4,11.9,36.4,6.2c-2.6,13.1,3.4,26.7,15.3,33.5c11.9,7.1,26.7,5.1,36.6-3.4c0.9,13.1,9.9,24.7,23.6,28.4
			c13.4,3.7,27.3-2,34.7-12.8c4.3,12.5,16.2,21.3,30.1,21.3s25.9-8.8,30.1-21.3c7.4,10.8,21,16.5,34.7,12.8
			c13.4-3.7,22.4-15.3,23.6-28.4c9.9,8.5,24.7,10.5,36.6,3.4c11.9-7.1,17.9-20.7,15.3-33.5c11.9,5.7,26.4,3.7,36.4-6.3
			s11.9-24.4,6.3-36.4c13.1,2.6,26.7-3.4,33.5-15.3c7.1-11.9,5.1-26.7-3.4-36.6c13.1-0.9,24.7-9.9,28.4-23.6
			C1000.9,801.2,995.5,787.6,984.5,780.2z M634.8,611.1c-7.5,0-13.8-6.3-13.8-13.8c0-7.5,6.3-13.8,13.8-13.8
			c7.5,0,13.8,6.3,13.8,13.8C648.6,604.8,642.3,611.1,634.8,611.1z M876.8,611.1c-7.5,0-13.8-6.3-13.8-13.8
			c0-7.5,6.3-13.8,13.8-13.8s13.8,6.3,13.8,13.8C890.6,604.8,884.7,611.1,876.8,611.1z"/>
	</g>
</g>
</svg>
