<?xml version="1.0" encoding="utf-8"?>
<!-- Generator: Adobe Illustrator 22.1.0, SVG Export Plug-In . SVG Version: 6.00 Build 0)  -->
<svg version="1.1" id="Layer_1" xmlns="http://www.w3.org/2000/svg" xmlns:xlink="http://www.w3.org/1999/xlink" x="0px" y="0px"
	 viewBox="0 0 1744.5 1500" style="enable-background:new 0 0 1744.5 1500;" xml:space="preserve">
<style type="text/css">
	.st0{fill:#EA7E2D;}
</style>
<path class="st0" d="M872.2,594.3c-129.1-189-343.4-64.5-278.9,115.1C657.9,889.4,872.2,1000,872.2,1000s214.3-110.6,278.9-290.5
	C1215.9,529.8,1001.3,405.3,872.2,594.3z M710.4,561.8c-8.9,0-16.4-7.5-16.4-16.4c0-8.9,7.5-16.4,16.4-16.4
	c8.9,0,16.4,7.5,16.4,16.4C726.9,554.2,719.4,561.8,710.4,561.8z M1034,561.8c-8.9,0-16.4-7.5-16.4-16.4c0-8.9,7.5-16.4,16.4-16.4
	c8.9,0,16.4,7.5,16.4,16.4C1050.5,554.2,1043.4,561.8,1034,561.8z"/>
</svg>
