<?xml version="1.0" encoding="utf-8"?>
<!-- Generator: Adobe Illustrator 22.1.0, SVG Export Plug-In . SVG Version: 6.00 Build 0)  -->
<svg version="1.1" id="Layer_1" xmlns="http://www.w3.org/2000/svg" xmlns:xlink="http://www.w3.org/1999/xlink" x="0px" y="0px"
	 viewBox="0 0 1380.3 1500" style="enable-background:new 0 0 1380.3 1500;" xml:space="preserve">
<style type="text/css">
	.st0{fill:#EA7E2D;}
</style>
<path class="st0" d="M894.3,759.5l-8.5-9.4l8.5-9.4c64.2-71-0.3-182.9-94-162.8l-12.2,2.6l-4-11.9c-29.5-91.5-158.5-91.5-187.8,0
	l-4,11.9l-12.2-2.6c-93.7-20.2-158.5,91.7-94,162.8l8.5,9.4l-8.5,9.4c-64.2,71,0.3,182.9,94,162.8l12.2-2.6l4,11.9
	c29.3,91.2,158.5,91.2,187.8,0l4-11.9l12.2,2.6C894,942.4,958.7,830.5,894.3,759.5z M549.3,624.3c-7.5,0-13.8-6.3-13.8-13.8
	c0-7.5,6.3-13.8,13.8-13.8c7.5,0,13.8,6.3,13.8,13.8C563.1,618,556.8,624.3,549.3,624.3z M821.1,624.3c-7.5,0-13.8-6.3-13.8-13.8
	c0-7.5,6.3-13.8,13.8-13.8c7.5,0,13.8,6.3,13.8,13.8C834.9,618,829,624.3,821.1,624.3z"/>
</svg>
