<?xml version="1.0" encoding="utf-8"?>
<!-- Generator: Adobe Illustrator 22.1.0, SVG Export Plug-In . SVG Version: 6.00 Build 0)  -->
<svg version="1.1" id="Layer_1" xmlns="http://www.w3.org/2000/svg" xmlns:xlink="http://www.w3.org/1999/xlink" x="0px" y="0px"
	 viewBox="0 0 1380.3 1500" style="enable-background:new 0 0 1380.3 1500;" xml:space="preserve">
<style type="text/css">
	.st0{fill:#DD4D3E;}
</style>
<path class="st0" d="M903.5,686.7c-94.5-81-213.1-166.6-213.1-166.6s-118.6,85.5-213.1,166.6s-41.2,215.4,213.1,333.4
	C944.8,902.4,998,767.8,903.5,686.7z M582.4,659c-9.9,0-18.2-8.3-18.2-18.2c0-9.9,8.3-18.2,18.2-18.2s18.2,8.3,18.2,18.2
	C600.6,650.7,592.3,659,582.4,659z M798.4,659c-9.9,0-18.2-8.3-18.2-18.2c0-9.9,8.3-18.2,18.2-18.2s18.2,8.3,18.2,18.2
	C816.6,650.7,808.8,659,798.4,659z"/>
</svg>
