<?xml version="1.0" encoding="utf-8"?>
<!-- Generator: Adobe Illustrator 22.1.0, SVG Export Plug-In . SVG Version: 6.00 Build 0)  -->
<svg version="1.1" id="Layer_1" xmlns="http://www.w3.org/2000/svg" xmlns:xlink="http://www.w3.org/1999/xlink" x="0px" y="0px"
	 viewBox="0 0 1497.5 1500" style="enable-background:new 0 0 1497.5 1500;" xml:space="preserve">
<style type="text/css">
	.st0{fill:#DD4D3E;}
</style>
<path class="st0" d="M970.6,500c-0.8,0-2,0-2.8,0c-0.3,0-0.6,0-0.8,0c-0.6,0-1.1,0.3-1.7,0.3c-0.3,0-0.6,0.3-1.1,0.3
	s-1.1,0.3-1.4,0.3c-0.3,0-0.8,0.3-1.1,0.3c-0.6,0.3-0.8,0.3-1.4,0.6c-0.3,0.3-0.8,0.3-1.1,0.6c-0.6,0.3-0.8,0.3-1.4,0.6
	c-0.3,0.3-0.8,0.3-1.1,0.6c-0.3,0.3-0.8,0.6-1.1,0.8c-0.3,0.3-0.6,0.6-1.1,0.6c-0.3,0.3-0.8,0.6-1.1,0.8c-0.3,0.3-0.6,0.6-0.8,0.8
	s-0.6,0.6-0.8,0.8c-0.3,0.3-0.6,0.6-0.8,0.8s-0.6,0.6-0.8,0.8s-0.6,0.6-0.8,1.1c-0.3,0.3-0.6,0.6-0.8,1.1c-0.3,0.3-0.6,0.8-0.8,1.1
	c-0.3,0.3-0.6,0.6-0.6,1.1c-0.3,0.3-0.6,0.8-0.6,1.1c-0.3,0.3-0.3,0.8-0.6,1.1c-0.3,0.3-0.3,0.8-0.6,1.4c-0.3,0.3-0.3,0.8-0.3,1.1
	c-0.3,0.6-0.3,0.8-0.6,1.4c0,0.3-0.3,0.6-0.3,1.1c-0.3,1.1-0.6,2.5-0.8,4c0,0,0,0,0,0.3c-1.4-13.9-13.3-24.9-27.7-24.9
	c-14.4,0-26,10.8-27.7,24.9c-1.4-13.9-13.3-24.9-27.7-24.9c-14.4,0-26,10.8-27.7,24.9c-1.4-13.9-13.3-24.9-27.7-24.9
	c-14.4,0-26,10.8-27.7,24.9c-1.4-13.9-13.3-24.9-27.7-24.9s-26,10.8-27.7,24.9c-1.4-13.9-13.3-24.9-27.7-24.9
	c-14.4,0-26,10.8-27.7,24.9c-1.4-13.9-13.3-24.9-27.7-24.9c-14.4,0-26,10.8-27.7,24.9c-1.4-13.9-13.3-24.9-27.7-24.9
	c-14.4,0-26,10.8-27.7,24.9c-0.3-1.4-0.3-2.5-0.8-4c0-0.3-0.3-0.8-0.3-1.1c0-0.6-0.3-0.8-0.6-1.4c0-0.3-0.3-0.8-0.3-1.1
	c-0.3-0.6-0.3-0.8-0.6-1.1c-0.3-0.3-0.3-0.8-0.6-1.1c-0.3-0.3-0.6-0.8-0.6-1.1c-0.3-0.3-0.3-0.8-0.6-1.1c-0.3-0.3-0.6-0.8-0.8-1.1
	c-0.3-0.3-0.6-0.6-0.8-1.1c-0.3-0.3-0.6-0.6-0.8-0.8s-0.6-0.6-0.8-0.8c-0.3-0.3-0.6-0.6-0.8-0.8s-0.6-0.6-0.8-0.8s-0.6-0.6-0.8-0.8
	s-0.8-0.6-1.1-0.8c-0.3-0.3-0.6-0.6-1.1-0.6c-0.3-0.3-0.8-0.6-1.1-0.8c-0.3-0.3-0.6-0.3-1.1-0.6c-0.3-0.3-0.8-0.3-1.4-0.6
	c-0.3-0.3-0.8-0.3-1.1-0.6c-0.6-0.3-0.8-0.3-1.4-0.6c-0.3,0-0.8-0.3-1.1-0.3c-0.6-0.3-1.1-0.3-1.4-0.3c-0.3,0-0.6-0.3-1.1-0.3
	c-0.6,0-1.1-0.3-1.7-0.3c-0.3,0-0.6,0-0.8,0c-0.8,0-1.7,0-2.8,0c-15.3,0-27.7,12.5-27.7,27.7c0,0.8,0,2,0,2.8c0,0.3,0,0.6,0,0.8
	c0,0.6,0.3,1.1,0.3,1.7c0,0.3,0.3,0.6,0.3,1.1s0.3,1.1,0.3,1.4s0.3,0.8,0.3,1.1c0.3,0.6,0.3,0.8,0.6,1.4c0.3,0.3,0.3,0.8,0.6,1.1
	c0.3,0.6,0.3,0.8,0.6,1.4c0.3,0.3,0.3,0.8,0.6,1.1c0.3,0.3,0.6,0.8,0.8,1.1c0.3,0.3,0.6,0.6,0.6,1.1c0.3,0.3,0.6,0.8,0.8,1.1
	c0.3,0.3,0.6,0.6,0.8,0.8c0.3,0.3,0.6,0.6,0.8,0.8c0.3,0.3,0.6,0.6,0.8,0.8c0.3,0.3,0.6,0.6,0.8,0.8c0.3,0.3,0.6,0.6,1.1,0.8
	c0.3,0.3,0.6,0.6,1.1,0.8c0.3,0.3,0.8,0.6,1.1,0.8c0.3,0.3,0.6,0.6,1.1,0.6c0.3,0.3,0.8,0.6,1.1,0.6c0.3,0.3,0.8,0.3,1.1,0.6
	c0.3,0.3,0.8,0.3,1.4,0.6c0.3,0.3,0.8,0.3,1.1,0.3c0.6,0.3,0.8,0.3,1.4,0.6c0.3,0,0.6,0.3,1.1,0.3c1.1,0.3,2.5,0.6,4,0.8
	c0,0,0,0,0.3,0c-13.9,1.4-24.9,13.3-24.9,27.7s10.8,26,24.9,27.7c-13.9,1.4-24.9,13.3-24.9,27.7c0,14.4,10.8,26,24.9,27.7
	c-13.9,1.4-24.9,13.3-24.9,27.7c0,14.4,10.8,26,24.9,27.7c-13.9,1.4-24.9,13.3-24.9,27.7c0,14.4,10.8,26,24.9,27.7
	c-13.9,1.4-24.9,13.3-24.9,27.7c0,14.4,10.8,26,24.9,27.7c-13.9,1.4-24.9,13.3-24.9,27.7c0,14.4,10.8,26,24.9,27.7
	c-13.9,1.4-24.9,13.3-24.9,27.7c0,14.4,10.8,26,24.9,27.7c-1.4,0.3-2.8,0.6-4.2,0.8c-0.3,0-0.6,0.3-1.1,0.3
	c-0.6,0.3-0.8,0.3-1.4,0.6c-0.3,0-0.8,0.3-1.1,0.3c-0.6,0.3-0.8,0.3-1.4,0.6c-0.3,0.3-0.8,0.3-1.1,0.6c-0.3,0.3-0.8,0.6-1.1,0.6
	c-0.3,0.3-0.8,0.3-1.1,0.6c-0.3,0.3-0.8,0.6-1.1,0.8c-0.3,0.3-0.6,0.6-1.1,0.8c-0.3,0.3-0.6,0.6-1.1,0.8c-0.3,0.3-0.6,0.6-0.8,0.8
	s-0.6,0.6-0.8,0.8s-0.6,0.6-0.8,0.8s-0.6,0.6-0.8,0.8s-0.6,0.8-0.8,1.1c-0.3,0.3-0.6,0.6-0.6,1.1c-0.3,0.3-0.6,0.8-0.8,1.1
	c-0.3,0.3-0.3,0.6-0.6,1.1c-0.3,0.3-0.3,0.8-0.6,1.4c-0.3,0.3-0.3,0.8-0.6,1.1c-0.3,0.6-0.3,0.8-0.6,1.4c0,0.3-0.3,0.8-0.3,1.1
	c-0.3,0.6-0.3,1.1-0.3,1.4s-0.3,0.6-0.3,1.1c0,0.6-0.3,1.1-0.3,1.7c0,0.3,0,0.6,0,0.8c0,0.8,0,1.7,0,2.8c0,15.3,12.5,27.7,27.7,27.7
	c0.8,0,1.7,0,2.5,0c0.3,0,0.6,0,0.8,0c0.6,0,1.1-0.3,1.7-0.3c0.3,0,0.8-0.3,1.1-0.3c0.6,0,1.1-0.3,1.4-0.3c0.3,0,0.8-0.3,1.1-0.3
	c0.6-0.3,0.8-0.3,1.4-0.6c0.3-0.3,0.8-0.3,1.1-0.6c0.6-0.3,0.8-0.3,1.1-0.6c0.3-0.3,0.8-0.3,1.1-0.6c0.3-0.3,0.8-0.6,1.1-0.8
	c0.3-0.3,0.6-0.6,1.1-0.6c0.3-0.3,0.8-0.6,1.1-0.8c0.3-0.3,0.6-0.6,0.8-0.8c0.3-0.3,0.6-0.6,0.8-0.8c0.3-0.3,0.6-0.6,0.8-0.8
	c0.3-0.3,0.6-0.6,0.8-0.8c0.3-0.3,0.6-0.6,0.8-1.1c0.3-0.3,0.6-0.6,0.8-1.1c0.3-0.3,0.6-0.8,0.8-1.1c0.3-0.3,0.6-0.6,0.6-1.1
	c0.3-0.3,0.6-0.8,0.6-1.1c0.3-0.3,0.3-0.8,0.6-1.1c0.3-0.3,0.3-0.8,0.6-1.4c0.3-0.3,0.3-0.8,0.3-1.1c0.3-0.6,0.3-0.8,0.6-1.4
	c0-0.3,0.3-0.6,0.3-1.1c0.3-1.4,0.6-2.5,0.8-4c1.4,13.9,13.3,24.9,27.7,24.9c14.4,0,26-10.8,27.7-24.9c1.4,13.9,13.3,24.9,27.7,24.9
	c14.4,0,26-10.8,27.7-24.9c1.4,13.9,13.3,24.9,27.7,24.9c14.4,0,26-10.8,27.7-24.9c1.4,13.9,13.3,24.9,27.7,24.9
	c14.4,0,26-10.8,27.7-24.9c1.4,13.9,13.3,24.9,27.7,24.9c14.4,0,26-10.8,27.7-24.9c1.4,13.9,13.3,24.9,27.7,24.9
	c14.4,0,26-10.8,27.7-24.9c1.4,13.9,13.3,24.9,27.7,24.9c14.4,0,26-10.8,27.7-24.9c0.3,1.4,0.3,2.8,0.8,4c0,0.3,0.3,0.6,0.3,1.1
	c0.3,0.6,0.3,0.8,0.6,1.4c0,0.3,0.3,0.8,0.3,1.1c0.3,0.6,0.3,0.8,0.6,1.4c0.3,0.3,0.3,0.8,0.6,1.1c0.3,0.3,0.6,0.8,0.6,1.1
	c0.3,0.3,0.3,0.6,0.6,1.1c0.3,0.3,0.6,0.8,0.8,1.1c0.3,0.3,0.6,0.6,0.8,1.1c0.3,0.3,0.6,0.6,0.8,1.1c0.3,0.3,0.6,0.6,0.8,0.8
	s0.6,0.6,0.8,0.8s0.6,0.6,0.8,0.8s0.6,0.6,0.8,0.8s0.6,0.6,1.1,0.8c0.3,0.3,0.6,0.6,1.1,0.8c0.3,0.3,0.8,0.6,1.1,0.6
	c0.3,0.3,0.8,0.3,1.1,0.6c0.3,0.3,0.8,0.3,1.1,0.6c0.3,0.3,0.8,0.3,1.1,0.6c0.6,0.3,0.8,0.3,1.4,0.6c0.3,0,0.8,0.3,1.1,0.3
	c0.6,0.3,1.1,0.3,1.4,0.3s0.8,0.3,1.1,0.3c0.6,0,1.1,0.3,1.7,0.3c0.3,0,0.6,0,0.8,0c0.8,0,1.7,0,2.5,0c15.3,0,27.7-12.5,27.7-27.7
	c0-0.8,0-2,0-2.8c0-0.3,0-0.6,0-0.8c0-0.6-0.3-1.1-0.3-1.7c0-0.3-0.3-0.6-0.3-1.1s-0.3-1.1-0.3-1.4s-0.3-0.8-0.3-1.1
	c-0.3-0.6-0.3-0.8-0.6-1.4c-0.3-0.3-0.3-0.8-0.6-1.1c-0.3-0.6-0.3-0.8-0.6-1.4c-0.3-0.3-0.3-0.8-0.6-1.1c-0.3-0.3-0.6-0.8-0.8-1.1
	c-0.3-0.3-0.6-0.6-0.6-1.1c-0.3-0.3-0.6-0.8-0.8-1.1c-0.3-0.3-0.6-0.6-0.8-0.8s-0.6-0.6-0.8-0.8s-0.6-0.6-0.8-0.8s-0.6-0.6-0.8-0.8
	s-0.6-0.6-1.1-0.8c-0.3-0.3-0.6-0.6-1.1-0.8c-0.3-0.3-0.8-0.6-1.1-0.8c-0.3-0.3-0.6-0.6-1.1-0.6c-0.3-0.3-0.8-0.6-1.1-0.6
	c-0.3-0.3-0.8-0.3-1.1-0.6c-0.6-0.3-0.8-0.3-1.4-0.6c-0.3-0.3-0.8-0.3-1.1-0.3c-0.6-0.3-0.8-0.3-1.4-0.6c-0.3,0-0.6-0.3-1.1-0.3
	c-1.4-0.3-2.8-0.6-4.2-0.8c13.9-1.4,24.9-13.3,24.9-27.7c0-14.4-10.8-26-24.9-27.7c13.9-1.4,24.9-13.3,24.9-27.7
	c0-14.4-10.8-26-24.9-27.7c13.9-1.4,24.9-13.3,24.9-27.7c0-14.4-10.8-26-24.9-27.7c13.9-1.4,24.9-13.3,24.9-27.7
	c0-14.4-10.8-26-24.9-27.7c13.9-1.4,24.9-13.3,24.9-27.7c0-14.4-10.8-26-24.9-27.7c13.9-1.4,24.9-13.3,24.9-27.7
	c0-14.4-10.8-26-24.9-27.7c15-2.5,26-14.1,26-28.6c0-14.4-10.8-26-24.9-27.7c0,0,0,0,0.3,0c1.4-0.3,2.5-0.3,4-0.8
	c0.3,0,0.8-0.3,1.1-0.3c0.6-0.3,0.8-0.3,1.4-0.6c0.3,0,0.8-0.3,1.1-0.3c0.6-0.3,0.8-0.3,1.4-0.6c0.3-0.3,0.8-0.3,1.1-0.6
	c0.3-0.3,0.8-0.6,1.1-0.6c0.3-0.3,0.8-0.3,1.1-0.6c0.3-0.3,0.8-0.6,1.1-0.8c0.3-0.3,0.6-0.6,1.1-0.8c0.3-0.3,0.6-0.6,1.1-0.8
	c0.3-0.3,0.6-0.6,0.8-0.8c0.3-0.3,0.6-0.6,0.8-0.8s0.6-0.6,0.8-0.8s0.6-0.6,0.8-0.8s0.6-0.8,0.8-1.1c0.3-0.3,0.6-0.6,0.6-1.1
	c0.3-0.3,0.6-0.8,0.8-1.1c0.3-0.3,0.3-0.6,0.6-1.1c0.3-0.3,0.3-0.8,0.6-1.4c0.3-0.3,0.3-0.8,0.6-1.1c0.3-0.6,0.3-0.8,0.6-1.4
	c0-0.3,0.3-0.8,0.3-1.1c0.3-0.6,0.3-1.1,0.3-1.4s0.3-0.6,0.3-1.1c0-0.6,0.3-1.1,0.3-1.7c0-0.3,0-0.6,0-0.8c0-0.8,0-1.7,0-2.8
	C998.3,512.5,985.9,500,970.6,500z M606.5,588.6c-10,0-18.3-8.4-18.3-18.3c0-10,8.4-18.3,18.3-18.3s18.3,8.4,18.3,18.3
	C624.8,580.2,616.4,588.6,606.5,588.6z M891,588.6c-10,0-18.3-8.4-18.3-18.3c0-10,8.4-18.3,18.3-18.3s18.3,8.4,18.3,18.3
	C909.3,580.2,901.5,588.6,891,588.6z"/>
</svg>
