<?xml version="1.0" encoding="utf-8"?>
<!-- Generator: Adobe Illustrator 22.1.0, SVG Export Plug-In . SVG Version: 6.00 Build 0)  -->
<svg version="1.1" id="Layer_1" xmlns="http://www.w3.org/2000/svg" xmlns:xlink="http://www.w3.org/1999/xlink" x="0px" y="0px"
	 viewBox="0 0 1577.6 1500" style="enable-background:new 0 0 1577.6 1500;" xml:space="preserve">
<style type="text/css">
	.st0{fill:#DD4D3E;}
</style>
<path class="st0" d="M1051.7,691l-164-50.6L788.8,500l-98.9,140.4l-164,50.6l102.9,137.3l-2.6,171.7l162.6-55.4l162.6,55.4
	l-2.6-171.7L1051.7,691z M645.9,710.4c-10,0-18.4-8.4-18.4-18.4c0-10,8.4-18.4,18.4-18.4c10,0,18.4,8.4,18.4,18.4
	C664.3,701.9,655.9,710.4,645.9,710.4z M931.7,710.4c-10,0-18.4-8.4-18.4-18.4c0-10,8.4-18.4,18.4-18.4c10,0,18.4,8.4,18.4,18.4
	C950.1,701.9,942.2,710.4,931.7,710.4z"/>
</svg>
