<?xml version="1.0" encoding="utf-8"?>
<!-- Generator: Adobe Illustrator 22.1.0, SVG Export Plug-In . SVG Version: 6.00 Build 0)  -->
<svg version="1.1" id="Layer_1" xmlns="http://www.w3.org/2000/svg" xmlns:xlink="http://www.w3.org/1999/xlink" x="0px" y="0px"
	 viewBox="0 0 1731.8 1500" style="enable-background:new 0 0 1731.8 1500;" xml:space="preserve">
<style type="text/css">
	.st0{fill:#DD4D3E;}
</style>
<path class="st0" d="M1010.2,500H721.6L577.3,750l144.3,250h288.6l144.3-250L1010.2,500z M745.1,562.2c-10,0-18.4-8.4-18.4-18.4
	c0-10,8.4-18.4,18.4-18.4c10,0,18.4,8.4,18.4,18.4C763.5,553.8,755.1,562.2,745.1,562.2z M986.7,562.2c-10,0-18.4-8.4-18.4-18.4
	c0-10,8.4-18.4,18.4-18.4c10,0,18.4,8.4,18.4,18.4C1005.1,553.8,997.2,562.2,986.7,562.2z"/>
</svg>
