<?xml version="1.0" encoding="utf-8"?>
<!-- Generator: Adobe Illustrator 22.1.0, SVG Export Plug-In . SVG Version: 6.00 Build 0)  -->
<svg version="1.1" id="Layer_1" xmlns="http://www.w3.org/2000/svg" xmlns:xlink="http://www.w3.org/1999/xlink" x="0px" y="0px"
	 viewBox="0 0 1562.3 1500" style="enable-background:new 0 0 1562.3 1500;" xml:space="preserve">
<style type="text/css">
	.st0{fill:#DD4D3E;}
</style>
<path class="st0" d="M520.8,500l260.4,500l260.4-500H520.8z M638.2,559.4c-10,0-18.4-8.4-18.4-18.4c0-10,8.4-18.4,18.4-18.4
	c10,0,18.4,8.4,18.4,18.4C656.6,551,648.2,559.4,638.2,559.4z M924,559.4c-10,0-18.4-8.4-18.4-18.4c0-10,8.4-18.4,18.4-18.4
	c10,0,18.4,8.4,18.4,18.4C942.4,551,934.5,559.4,924,559.4z"/>
</svg>
