<?xml version="1.0" encoding="utf-8"?>
<!-- Generator: Adobe Illustrator 22.1.0, SVG Export Plug-In . SVG Version: 6.00 Build 0)  -->
<svg version="1.1" id="Layer_1" xmlns="http://www.w3.org/2000/svg" xmlns:xlink="http://www.w3.org/1999/xlink" x="0px" y="0px"
	 viewBox="0 0 600 600" style="enable-background:new 0 0 600 600;" xml:space="preserve">
<style type="text/css">
	.st0{fill:#414549;}
</style>
<path class="st0" d="M340,54c-44.2,0-85.7,11.6-121.8,31.9C140.5,118,82.5,188.3,67.8,273.4c-4-30.8-13.2-69.4-33.9-93.4l-3.5-4
	l-3.1,4.3c-0.9,1.3-22,31.7-16.4,76.8c5.5,43.9,35.5,65.7,53.2,67.2c0.1,0.1,0.1,0.3,0.1,0.5c7.2,17.4,15.6,35.5,25.6,53.8
	c-6.4-6.1-13.6-13.1-20.8-19.9c-44.3-41.9-47.4-42.3-49.7-42.6c-1.9-0.3-3.7,0.7-4.7,2.5c-2.8,5.3,4,27,8,37.5
	c4.8,13,15.5,37.4,32.2,55.6c12.6,13.6,26.3,21.4,40.9,23.4c0.1,0.3,0.1,0.5,0.3,0.8c3.6,6.4,7.5,12.8,11.8,18.8l-57.7-17.6l7.1,9.9
	c1.5,2.1,36.7,50.9,75.1,58.9c6.4,1.3,12.3,1.9,17.4,1.9c2.3,0,4.5-0.1,6.5-0.3c0.1,0.1,0.3,0.3,0.4,0.3c8,6.5,16.6,12.6,25.4,18
	c-2,0-3.7,0.1-5.5,0.3c-23.4,1.2-46.3,9.9-47.3,10.3l-8.1,3.2l7.6,4.3c1.3,0.8,30.2,16.8,57.3,16.8c2.1,0,4.4-0.1,6.5-0.4
	c12.6-1.3,25.5-5.5,36.1-11.4c0.4,0.3,0.8,0.5,1.3,0.7c26.4,9.3,54.2,14,82.5,14c44.2,0,85.7-11.6,121.8-31.9
	C524.4,494.4,588,405.6,588,302.1C588.3,165.4,476.9,54,340,54z M144.4,149.6C113.2,189.4,94,238.8,92,292.5
	c-9.7,16.3-6.1,46.7-1.1,70.4c-4.7-8.9-8.8-17.9-12.8-26.7c-1.3-3.2-2-17-2-20.7C76.1,251,102.2,192.3,144.4,149.6z M124.2,418.3
	c-6-8.5-11.5-17.1-16.8-25.8c-6.5-19.6-19.2-69.3-10.3-92C105,322.7,126.1,385.1,124.2,418.3z M61.8,294.4c-12-35.9-19-71-22.4-91.6
	C54.5,231.1,60,269.1,61.8,294.4z M19.2,256.3c-3.6-28.6,4.7-51.3,10.3-62.8c2.9,19.8,12,72.1,31,121.9
	C46.9,311.3,23.9,293.4,19.2,256.3z M105.8,405.5c1.9,2.9,3.7,5.9,5.7,8.8c-36.5-8.4-72-63.2-83.2-81.7
	C46.2,348.2,82,382.3,105.8,405.5z M29.2,349.7c17.6,26.7,52.4,71.7,88.7,74c0.4,0.5,0.7,0.9,1.1,1.5c-16.8,5.5-32.9,2.3-47.7-9.2
	C50.5,399.6,36.7,371.2,29.2,349.7z M108.3,435.7c5.2-0.5,10.4-1.6,15.6-3.6c9.6,13,20,25.5,31.4,37.5l-30.7-9.5
	C119.5,453,112.8,443.1,108.3,435.7z M167.9,460.1c-4.9-14.8-15.1-45.1-23.1-67.3c-6.1-17-4.1-37.5-1.6-48.6
	C154,366.2,181.1,427.5,167.9,460.1z M78.4,454.6l89.3,27.4c0.5,0.5,1.2,1.1,1.7,1.6C136.9,489.5,96.1,466.3,78.4,454.6z M134.1,498
	c-16-3.3-32.1-15.1-44.6-27c18.4,10.3,44.6,21.8,69.2,21.8c6.3,0,12.4-0.8,18.3-2.4c0.1,0.1,0.3,0.3,0.4,0.4
	C172.4,495.2,159.6,503.4,134.1,498z M183.6,496.3c12.8,10.7,26.6,20.7,41.4,29.5c-6.3,0-14,0-22.2,0c-9.6-5.5-23-13.9-33-21.1
	C176.5,502.2,180.9,498.8,183.6,496.3z M207.4,470.9c-4.9-18-7.1-31.9-8.1-41.8c19.4,40.1,29.2,74.9,33.3,91.5
	c-1.7-1.1-3.5-2-5.2-3.1C226.1,516.5,217.3,507.4,207.4,470.9z M242.1,535.3c2.8,1.5,5.7,2.9,8.7,4.3h0.1c6.5,3.1,13.2,6,20.2,8.7
	c-10.7-1.9-21.4-4.5-31.7-7.9C240.8,538.6,241.6,536.9,242.1,535.3z M249.1,529.6c-2.1-1.1-4.3-2.1-6.4-3.3v-0.4h-0.4
	c-2.3-10.3-10.1-43.1-27.8-83.6C230.6,465.7,249.3,499.5,249.1,529.6z M191.8,552.3c-17.8,1.9-38.5-5.9-50.1-11.1
	c8.7-2.5,22-6,35.4-6.5c5.5-0.3,12.4-0.4,20.8-0.5c14.6-0.1,28.6,0,35.8,0c-0.8,1.5-2.1,3.2-4.4,4.9c-0.4,0.3-0.8,0.5-1.2,0.8
	c-0.1,0.1-0.3,0.3-0.5,0.4C217.5,546.5,204.4,550.9,191.8,552.3z M429.2,521.3c-27.5,11.2-57.7,17.5-89.2,17.5
	c-28.6,0-56.4-5.1-82.8-15c-3.2-54.1-57-113.8-59.6-116.5l-6-6.5l-1.2,8.8c-0.1,0.8-2.5,21.1,8.9,63.6c4.1,15.4,8.1,26.2,11.8,33.8
	c-14.8-10.4-28.6-21.9-41-34.2l0,0c30.2-39.9-21.6-136.6-23.9-140.6l-2.9-5.5l-3.9,4.8c-5.1,6.3-11.6,38.6-2.4,64.1
	c7.9,21.9,17.9,51.8,22.8,66.8c-10.4-11-19.9-22.6-28.7-34.3c7.5-34.5-20-113.4-27.5-133.7c2.8-84.7,50.3-158.3,119.7-197.8
	c27.5-11.2,57.7-17.5,89.2-17.5c130.3,0,236.5,106,236.5,236.5C549.1,403.6,500.8,480.5,429.2,521.3z M508.3,468.3
	c33-42.1,52.6-95.1,52.6-152.6c0-136.8-111.1-248-247.7-248.3c8.8-1.1,17.8-1.6,26.8-1.6c130.3,0,236.5,106,236.5,236.5
	C576.5,366.9,550.5,425.5,508.3,468.3z"/>
</svg>
