<?xml version="1.0" encoding="utf-8"?>
<!-- Generator: Adobe Illustrator 22.1.0, SVG Export Plug-In . SVG Version: 6.00 Build 0)  -->
<svg version="1.1" id="Layer_1" xmlns="http://www.w3.org/2000/svg" xmlns:xlink="http://www.w3.org/1999/xlink" x="0px" y="0px"
	 viewBox="0 0 600 600" style="enable-background:new 0 0 600 600;" xml:space="preserve">
<style type="text/css">
	.st0{fill:#414549;}
</style>
<path class="st0" d="M524.1,343.3c5.5-7.9,10.6-15.1,15.2-21.7l0.1,0.1l1,0.2c3,0.9,7,1.5,11.4,1.5c11,0,24.5-4,31.5-18.7
	c11.1-23.7,9.4-65.3,9.2-67.1l-0.2-4.9l-4.7,1.5c-1.2,0.4-18.5,5.9-34.6,16.2l-97.7-76.6L299.6,18l-18.9,18.9l-21.4-16.7
	L121.2,196.4L14.3,303.2l-3.9,3.9l13.4,13.4L7.1,341.8l176.3,138.3l112.3,112.3l3.9,3.9l14-14l15.2,12l28-35.6
	c8.1,9.2,17.1,14.1,26.6,14.4c0.2,0,0.5,0,0.7,0c15.1,0,25.9-11.6,26.4-12.1l3.4-3.7l-4.6-2.2c-13.6-6.6-35.2-5.9-45.7-5l0.6-0.9
	c7-7.7,14-15.5,20.9-23.4c12.7,13.7,26.4,20.6,40.7,20.6c1,0,2,0,2.9-0.1c31.4-2,53.8-36.1,54.8-37.5l2.5-3.7l-4.2-1.7
	c-33-13.9-58.3-11.6-74.2-7c1.5-1.7,3.1-3.5,4.6-5.2c6.5-7.4,12.6-14.5,18.5-21.5c12.1,6.5,23.6,9.9,34.5,9.9
	c6.7,0,13.2-1.2,19.5-3.9c33.1-13.6,45.5-58.3,46-60.2l1-3.6l-3.6-1c-1-0.2-22.2-6-56.2,2.9c0.4-0.4,0.6-0.9,1-1.2
	c4.4-5.6,9-11.4,11-14c2.6,0.6,4.5,0.6,4.6,0.6h0.5l0.5-0.1c2.7-0.6,5.2-1.2,7.6-2.1c7.5,2.6,14.9,4,22,4c8.4,0,16.5-1.9,24.4-5.5
	c31.6-14.9,46-54.6,46.6-56.3l1.4-3.7l-3.9-1.1C556,324.3,534,336.1,524.1,343.3z M400.5,559.4c-3.9,2.7-9.9,6-16.9,5.7
	c-6-0.1-11.9-2.9-17.5-8C374.9,556.6,389.3,556.3,400.5,559.4z M494,389.4c2.7-11,7.5-34,4.7-51.7c-0.4-2.1-2.2-3.5-4.4-3.1
	c-2.1,0.4-3.5,2.2-3.1,4.4c2.7,18.1-3.1,43.1-5.4,51.7c-3.1-0.7-8.2-2.5-12.2-7.1c-5-5.9-7-14.6-5.7-26.1c3-28,23.4-50.1,31.6-58
	c4.2,7.9,13,26.2,16.1,44.5c0,0.1,0,0.1,0,0.2c1.6,10.1,1.6,20.1-2.1,28.5C510,380.7,503.7,386.2,494,389.4z M576.5,301.5
	c-8.2,17.5-27.5,14.6-32.6,13.5c16.7-24.6,25.7-39.1,25.9-39.4c1.1-1.7,0.5-4.1-1.2-5.2c-1.7-1.1-4.1-0.5-5.2,1.2
	c-0.1,0.2-8.5,13.9-24.4,37.2c-6-8.5-7.9-16.9-5.9-24.7c5.7-21.7,39.5-36.4,52.2-41.1C585.2,254.9,584.6,284.1,576.5,301.5z
	 M543.9,257c-1,0.7-2,1.6-2.9,2.4l-21.7-21.7L543.9,257z M299.6,33.4l84.7,84.7l-94.9-74.5L299.6,33.4z M261.3,35.2l11.7,9.2
	L185,132.6L261.3,35.2z M25.8,307.1l39.7-39.7L30.7,312L25.8,307.1z M22.4,339.9l9.2-11.7l88.1,88.1L22.4,339.9z M299.6,580.9
	l-45.1-45.1l50.6,39.7L299.6,580.9z M385.7,503.2c-1.9,9.9-6.6,16-9.7,19c-3.2-8.1-9.1-27.4-3.1-50.6c0.5-2-0.7-4.1-2.7-4.6
	s-4.1,0.7-4.6,2.7c-6,23.6-1,43.4,2.6,53.3c-6.6-2.1-11.4-6.4-14.2-12.6c-5.6-12.2-2.5-28.1,2.7-37.6c6.1-11.4,9.9-22.5,11.9-29.9
	C382.7,466.4,388.7,487.1,385.7,503.2z M330.4,574.7c-1.2,1.2-2.4,2.6-3.6,3.9l-5.4-4.1l42.6-42.6L330.4,574.7z M474.5,508.2
	c-6.6,8.6-24.4,28.9-46.2,30.4c-12.9,0.9-25.4-5.1-37.2-17.7c7-3.4,22.7-8.9,43.4-2.5c2,0.6,4.1-0.5,4.7-2.5c0.6-2-0.5-4.1-2.5-4.7
	c-20.2-6.2-36.6-2.2-45.7,1.5c0.1-0.5,0.4-0.9,0.5-1.4c0.6,0,1.4-0.2,1.9-0.7C393.7,510.3,424.2,489,474.5,508.2z M522.1,416.9
	c-3.7,10.9-16,41.2-40.4,51.3c-13.4,5.5-28.7,4-45.5-4.6c9.1-7.5,32.5-24.9,56.7-28.1c2.1-0.2,3.5-2.2,3.2-4.2
	c-0.2-2.1-2.1-3.5-4.2-3.2c-24.2,3.2-47,19-58,27.7c1.7-9.7,8.4-25.5,31.7-32.9C493.8,414,514.1,415.7,522.1,416.9z M466.9,407.3
	c-3.1,4-6.1,7.7-7.7,9.9c-2.4,0.9-4.6,1.9-6.6,3c3.7-37.9-27.1-59.2-27.5-59.5l-3.4-2.2l-2,3.5c-1,1.6-23.6,40.1-29.1,67
	c-5.4,26.2,17.5,40.9,22.1,43.5c0.6,0.4,1.4,0.5,2.1,0.5c1,0,1.9-0.4,2.6-1c1.4-1.1,1.9-3,1.2-4.6c-1.1-3.2-5.9-20.6,8-50.2
	c0.9-1.9,0.1-4.1-1.9-5c-1.9-0.9-4.1-0.1-5,1.9c-10.1,21.6-11.1,37.6-10.1,47.1c-6.6-5.6-14.6-15.9-11.7-30.5
	c4.2-20.9,20.2-50.5,26-60.8c7.7,6.6,26.1,26.1,19.9,56.1c-17.1,13.5-18.2,32.2-18.1,37.6c-6.1,7.4-12.5,14.9-19.4,22.6
	c-4.2,4.7-8.5,9.7-12.7,14.7c2-19.4-6-42.7-23.9-69.3l-5.2-7.9l-1.6,9.4c0,0.1-3.2,18.4-13.1,36.6c-6.1,11.2-9.6,29.9-2.9,44.5
	c2.1,4.5,5,8.2,8.6,11.2l-42.9,42.9l-122.2-95.7L38.3,319.6l90.9-116.1L281.5,51.2l166.5,130.7l85.3,85.3c-3.6,4.6-6.5,9.6-7.9,15
	c-2.9,10.9,0,22.1,8.6,33.2c-4,5.7-8.2,12-13,18.6c-5.5-22-16.7-41.4-17.5-42.6l-2.2-3.7l-3.4,2.7c-1.4,1.1-33.7,28-37.7,66.1
	c-1.5,13.7,1.1,24.5,7.6,32c2.6,3,5.6,5.1,8.5,6.6C474,398.3,470.3,403,466.9,407.3z M540.1,388c-10.2,4.7-21.2,5.9-32.9,3.4
	c6-4,10.4-9.2,13.2-15.7c0-0.1,0-0.1,0.1-0.2c0.1-0.1,0.4-0.2,0.5-0.4c7.6-6.5,20.9-15.2,26.6-14.2c2.1,0.4,4-1,4.4-3.1
	c0.4-2.1-1-4-3.1-4.4c-7.5-1.2-18,4.9-25.2,10.1c0.4-3.4,0.5-6.9,0.4-10.4c2.7-2.7,23.2-21.5,57.1-13.2
	C577,349.9,563.5,377,540.1,388z"/>
</svg>
