<?xml version="1.0" encoding="utf-8"?>
<!-- Generator: Adobe Illustrator 22.1.0, SVG Export Plug-In . SVG Version: 6.00 Build 0)  -->
<svg version="1.1" id="Layer_1" xmlns="http://www.w3.org/2000/svg" xmlns:xlink="http://www.w3.org/1999/xlink" x="0px" y="0px"
	 viewBox="0 0 600 600" style="enable-background:new 0 0 600 600;" xml:space="preserve">
<style type="text/css">
	.st0{fill:#414549;}
</style>
<path class="st0" d="M595.7,213.1c-0.3-4.4-0.8-8.8-1.4-12.3c-0.8-4-1.4-7.6-5-7.8c-1.8-0.1-3.4,1-4,2.7c-0.4,0.5-1.3,1.3-2.4,2.2
	c-8.2-23.9-21.9-44.5-40-60.6c-6.5-10.4-14.2-20-23.1-28.5C491.6,82.1,453.6,68.7,410.1,70c-47.5,1.4-90.6,30.4-113.9,72.1
	c-21.4-34.6-56.8-59.4-97.4-64.4c-0.3,0-0.4,0-0.7-0.1c-12.5-4.6-25.9-7.3-39.4-7.7c-31.1-0.9-59,5.5-83.1,19.1
	c-22.1,12.5-40.5,31.2-53.3,54.2c-32,57.5-26.5,134,14,194.9c26.9,40.5,64.7,81.1,109.1,118.2c36.4,37.4,79,72.5,123.4,101.9
	c2.2,1.4,4.3,2.9,6.5,4.3c0.4,0.7,0.9,1.3,1.6,1.7c1,0.8,2.2,1.2,3.5,1.2c0.4,0.1,0.8,0.1,1.2,0.1c0.8,0,1.7-0.1,2.5-0.5
	c0.7-0.4,1.3-0.8,1.8-1.4c30.2-12.5,59.9-27.2,88.6-43.5c10.6,7.8,21.6,11.8,32.8,11.8c1.6,0,3.1-0.1,4.8-0.3
	c34.5-3.4,58-42.7,59-44.4l1.8-3.1l-3-2.1c-7.1-5-14-8.5-20.5-11c6.1-4.6,12.1-9.3,17.9-13.8c8.6,5.7,17.5,8.6,26.4,8.6
	c2.5,0,5.1-0.3,7.6-0.7c33.3-6.1,54.6-50.4,55.4-52.2l2.4-5l-5.5-0.7c-0.9-0.1-14-1.6-29.8-2c8.2-8.6,15.8-17.4,22.9-26.1
	c0.5-0.7,0.8-1.3,1-2c1.4-0.8,2.9-1.7,4.3-2.6c28.7-19.6,35.1-59.4,35.4-61.1l0.5-3.7l-3.7-0.8c-0.1,0-0.3,0-0.4-0.1
	c2.5-8.2,4.4-16.7,5.9-25.1c0.7-4.2,3.5-30.6,3.9-34.6l0,0C596.5,234.8,596.2,221,595.7,213.1z M586.8,204.9
	c1.7,12.1,3.5,39.2-7.2,58.8c-4.3,7.8-10.2,13.6-17.6,17c10.3-21.2,14.6-34.2,14.9-34.9c0.7-2.1-0.4-4.3-2.5-5s-4.3,0.4-5,2.5
	c0,0.3-5,14.9-16.7,38.4c-4.7-3.8-12.4-12.5-9.3-28.5c1.7-8.4,8.5-18.3,20.5-29.3c6-5.6,12.4-10.6,17.4-14.6
	C583.5,207.5,585.2,206.1,586.8,204.9z M573.3,205.4c-2.2,1.8-4.6,3.7-7.1,5.7c-1-12.7-3.3-24.9-6.8-36.6
	C565.2,184,569.8,194.3,573.3,205.4z M410.3,81.2c40-1.2,74.6,10.8,100.4,34.7c-18.3-8.9-38.9-14-61.6-15.4
	c-57.5-3.5-111.9,33.6-134.3,87.8c-2.6-12.1-6.7-23.8-12.1-34.6C323.1,112.2,364.4,82.6,410.3,81.2z M290,154.1
	c-2.2,5-4.2,10.2-5.7,15.4c-7.8-25.3-22.6-47.8-41.8-65C262.2,116.3,278.7,133.6,290,154.1z M45.7,331.8
	C7.5,274.4,2.2,202.5,32.1,148.7c21.3-38.3,56.6-61.3,100.8-66.5c-6.4,1.8-12.7,4.2-18.7,6.9c-23.1,10.4-43.2,27.4-58,49.1
	c-37.1,54.3-38.5,131-3.8,195.4c6.7,12.4,14.4,25.1,23,37.7C64.5,358.2,54.4,345,45.7,331.8z M62.5,328.3
	c-32.8-60.7-31.5-132.8,3.1-183.6c28.9-42.3,74.8-62,129.8-55.9c44,16.7,78,59.3,83.2,109.6c0.3,2.9,2.7,5.1,5.6,5.1
	s5.4-2.2,5.6-5.1c1-10.4,3.4-20.6,6.8-30.3c6.1,15.2,9.7,31.5,9.9,48.5c0,2.9,2.2,5.4,5.1,5.6c2.9,0.3,5.5-1.7,6.1-4.6
	c12.3-63,69.6-109.3,130.6-105.7c34.1,2.1,63.2,13.3,85.4,32.3c13.3,21.9,20.9,48.2,21.7,76.7c-11.5,11.2-18,21.3-19.9,30.7
	c-3.8,19.5,5.7,31.7,13.5,37.2c-3.1,6.1-6.8,12.8-10.8,19.7c-10.3,2.4-20.2,7.1-27,15.7c-15,19.1-16.8,39.6-16.7,49.1
	c-0.1,0.1-0.3,0.3-0.4,0.4c-9.4,12-19.3,23.8-29.6,35.1c-0.3-2.1-0.4-4.3-0.5-6.7c21.7-18,29.6-43,23.1-72.2
	c-5.1-22.2-16.6-38.9-17.1-39.7l-2.6-3.8l-3.4,3.1c-1,1-25.7,24.7-30.7,62.4c-4.3,32.9,15.9,47,22.9,50.8c0.3,5,0.7,9.5,1.6,13.2
	c-18.4,19.5-38.1,37.9-59.2,55c-1.3,0.5-2.5,1-3.7,1.6c1-3.7,2.1-7.3,3-10.8c13.6-8.8,21.9-20.4,24.8-34.7
	c6.7-32.9-17.8-67.7-18.8-69.1l-2.5-3.5l-3.3,2.9c-0.9,0.8-22.7,19.7-29.4,54.1c-5.6,29.4,13.6,44.9,21,49.8
	c-1.3,5-2.7,10.2-4.4,15.4c-0.1,0.4-0.1,0.9-0.1,1.3c-11.9,7.6-20,16.7-23.4,20.9c-0.1,0.1-0.4,0.1-0.5,0.3
	c-2.6,1.8-5.4,3.7-8.1,5.5c10.4-26.6,5.2-51.7,4.8-52.9l-1.3-6l-5,3.7c-24.8,18.7-31.6,38.9-32.9,52.8c-0.5,5.1-0.3,9.7,0.3,13.6
	c-11.4,6.8-23,13.3-34.7,19.5c-46.6-24.4-90.9-54.2-130.1-86.6C115.9,409.9,84.2,368.4,62.5,328.3z M441,353.3
	c3.5-26.8,18.2-46.4,24.9-54.1c3.7,6.1,9.9,18.2,13.2,32.7c5.5,24.2,0.3,44.1-15.3,59.7c0.5-18,3.5-37.6,3.5-37.9
	c0.4-2.2-1.2-4.2-3.3-4.6c-2.2-0.4-4.2,1.2-4.6,3.3c-0.3,1.3-3.3,22.1-3.7,41.1C448.9,388.5,437.9,376.5,441,353.3z M401.3,414.5
	c-2.2-0.1-4,1.4-4.2,3.7c0,0.3-1.2,15.2-5.6,35.1c-6.9-5.2-19.6-17.9-15.3-40.1c4.6-23.8,17.4-39.8,23.5-46.4
	c5.9,9.7,19.7,35.5,14.9,59c-2,9.4-6.7,17.6-14.2,24.3c3.7-17.8,4.7-30.6,4.7-31.3C405.2,416.6,403.5,414.6,401.3,414.5z
	 M339.8,513.7c-3.9,2.5-7.8,5-11.9,7.4V521c0-0.9-0.1-1.7-0.5-2.5c-2.2-11.6-2.6-35.5,23.6-58C352.1,471.2,352.2,493.3,339.8,513.7z
	 M327.4,530.8L327.4,530.8c0.3-0.1,0.5-0.3,0.8-0.5c5.6-3.4,11.4-6.9,16.8-10.4l0,0c5.7-3.7,11.4-7.4,16.8-11.2
	c1.2,1.2,2.2,2.4,3.4,3.4c-16.6,9.4-33.4,18.2-50.7,26.3C318.9,535.7,323.1,533.2,327.4,530.8z M411.1,523.4
	c-14.1,1.4-28.1-4.8-41.5-18.4c7.7-4.2,32.1-15.7,60.9-10.6c2.2,0.4,4.2-1,4.6-3.3c0.4-2.2-1-4.2-3.3-4.6c-20.8-3.7-39.2,0.4-51.7,5
	c3.9-3.3,8.8-6.8,14.1-9.7c1.7-0.9,3.5-1.8,5.2-2.6l0,0c0.9,0,1.7-0.3,2.5-0.9c0.1-0.1,0.3-0.3,0.4-0.4c19.6-7.6,39.6-5,59.6,7.8
	C455.9,495.1,436.5,521,411.1,523.4z M436.3,466.1c-0.4,0.3-0.7,0.5-0.9,0.8c-6.8-1.2-13.2-1.2-19.1-0.4c6.8-5.9,13.6-11.9,20.1-18
	c3.3,0.1,8.9,0.4,15.8,0.4c1.6,0,3.3,0,5.1,0c0.3,0.3,0.5,0.4,0.7,0.7C451,455.1,443.8,460.8,436.3,466.1z M499.7,457
	c-10.2,1.8-20.5-1-30.7-8.6c15.3-1,31.9-3.9,41.1-11c1.7-1.3,2.1-3.8,0.8-5.6c-1.3-1.7-3.8-2.1-5.6-0.8c-8.8,6.7-25.7,9.1-40.7,9.8
	c3.8-8.4,13.1-24.4,29.4-26.6c18.2-2.6,41.9-1,52.6,0C540.3,425.6,522.9,452.8,499.7,457z M507.9,405l-0.1,0.1
	c-5.1,0.3-10.2,0.7-14.9,1.3c-23,3.3-34,27-37,34.9c-4.4,0-8.5,0-11.8-0.1c7.1-6.9,14.1-14,20.8-21.2c0,0,0,0,0.1-0.1
	c11.4-12.1,22.2-24.7,32.4-37.6l0.3,0.1c6.7,1.6,13.1,2.4,19.2,2.4c3.7,0,7.2-0.3,10.6-0.8C521.4,390.9,514.8,397.9,507.9,405z
	 M547.2,367.6c-10.4,7.2-23,10.1-37.1,8.6c10.8-6.8,28.3-19.1,38.9-33.8c1.3-1.8,0.9-4.3-0.9-5.5c-1.8-1.3-4.3-0.9-5.5,0.9
	c-11.1,15.3-30.8,28.2-40.4,34c0.1-9,2.4-26.5,15-42.6c14.5-18.5,49.5-15.2,61.3-13.3C576.2,325.8,568.2,353.4,547.2,367.6z
	 M548.3,306.9c3.3-5.7,6.1-11.1,8.8-16.2c8.6-2.1,15.9-6.3,21.8-12.4c-0.1,1-0.3,2.1-0.5,3.1c-1.4,8.5-3.4,17-6,25.3
	C565.8,306.4,557.1,306,548.3,306.9z"/>
</svg>
