<?xml version="1.0" encoding="utf-8"?>
<!-- Generator: Adobe Illustrator 22.1.0, SVG Export Plug-In . SVG Version: 6.00 Build 0)  -->
<svg version="1.1" id="Layer_1" xmlns="http://www.w3.org/2000/svg" xmlns:xlink="http://www.w3.org/1999/xlink" x="0px" y="0px"
	 viewBox="0 0 600 600" style="enable-background:new 0 0 600 600;" xml:space="preserve">
<style type="text/css">
	.st0{fill:#414549;}
</style>
<path class="st0" d="M600,479.2L421.4,233.5L306.7,20.5l-18.5,30l-25-34.3l-7,15.5l-4.9,3.8c-0.8,0.7-18.9,15-35.2,38.4
	c-21.6,30.8-29.3,62.4-22.7,91.9L175,208c-0.8-26-5-68.9-23.4-82.7l-4.7-3.5l-1.8,5.7c-1.6,4.9-36,116.1,1.8,145.2l-17.5,40.1
	l-1.8,2.9h0.5l-5,11.6c-0.7-16.7-2.8-41.1-9.3-62.6c-10.6-35-12.1-48.9-12.1-49l-1.2-12.8l-6.7,11c-0.5,0.8-12.6,21-17.1,50.3
	c-4.1,26.7-2.4,66.1,28.8,103.4l-20.8,47.6c0.5-14.3,0.1-32.7-3.8-50.2C73,329.2,63.4,316.7,63,316.2l-5.7-7.1l-1.8,8.9
	c-0.7,2.9-12.1,59,4.6,101.5L5.6,507.7l38.3,1.2l-13.4,30.5l228.5-24.1l319.2,9.6l-22-40.9L600,479.2z M577.8,469.3l-27.9,2.9
	L464.3,313L577.8,469.3z M306,44.6l62.3,115.8L296,60.9L306,44.6z M265.9,40.2l15.5,21.3l-25.5,41.3c3.3-18.4,3.7-36.8,3.4-49.2
	L265.9,40.2z M250.5,47.5c0.8,17.2,0.8,57.2-12.6,84.5c-11.4,23.5-25.6,28.7-33.4,29.7l26.6-60.9c0.9-2.1,0-4.6-2.2-5.7
	c-2.1-0.9-4.6,0-5.7,2.2l-23.3,53.2C196.7,102.6,235,61.9,250.5,47.5z M151.1,136.8c14.6,19.3,16.2,70.1,15.5,90.6l-5,11.4
	c-0.9-20.4-2.6-50.9-5.4-59.3c-0.8-2.2-3.2-3.4-5.4-2.6c-2.2,0.8-3.4,3.2-2.6,5.4c3.2,9.2,5.1,56,5.7,74.5l-3.3,7.8
	C127.1,242.9,141.3,171.1,151.1,136.8z M220.9,233.7c-1.8-1.4-4.5-1.3-6,0.5c-12.9,15.5-45.6,52.1-68,67.2
	c7.9-11.8,20.5-30.1,34.8-48c33.4-42.1,52.3-53.6,62.4-56c-6.7,21.7-34.3,99.1-90.3,109.4c28.4-20.1,65.7-64.9,67.6-67.2
	C223,237.9,222.7,235.1,220.9,233.7z M85.1,265.9c2.2-15.1,6.8-27.9,10.5-36.4c1.7,8.1,4.9,20.4,10.1,37.6
	c9.9,32.5,9.2,73.2,9.1,79.3l-2,4.5c-9.2-23.7-11.8-69.7-12-70.2c-0.1-2.4-2.1-4.1-4.5-3.9c-2.4,0.1-4.1,2.1-3.9,4.5
	c0.1,2.1,2.6,45.1,11.8,70.7C86.7,326.5,80.3,297.5,85.1,265.9z M62,331.7c3.2,7.1,7.1,18.4,10.6,35.1c5.1,23.5,3.8,49.4,2.5,63.4
	C55.8,400.5,59.1,353.7,62,331.7z M27,496l39.4-63.8c2,3.4,4.2,6.6,6.7,9.6l-14.7,33.9l0,0l-9.2,20.9L27,496z M50.2,524.8l5.8-15.9
	l112.6,3.4L50.2,524.8z M258.5,502.9l-198.1-5.9l9.5-25.8c-0.9,2.2-2.2,5.3-3.7,8L77,454.4c6.2,3.2,12.6,4.6,19.2,4.6
	c3.9,0,8-0.5,12.1-1.7c35.2-9.7,62-58.1,63.2-60.1l3.5-6.6l-7.5,0.3c-1.8,0-4.9,0.1-46.3,24.6c-13.8,8.1-27.7,16.6-37.2,22.3
	l19.7-45.2c2.8,0.7,7,1.4,12.6,1.4c10.1,0,24.6-2.4,43.2-11.7c38-18.8,56.3-66.2,57-68.4l1.8-4.9l-5.1-0.8c-3-0.5-9.1-1.4-60.1,35
	c-15.5,11-30.9,22.6-41.3,30.5l4.9-11.2l0,0l5.9-13.4l0,0l14.2-32.7c1.3,0.1,2.8,0.1,4.1,0.1c33,0,62.6-20.4,86-59.4
	c18.5-30.8,26.6-61.9,26.8-63.2l1.2-4.7l-4.9-0.5c-17.4-2-41.9,17.5-75.3,59.5c-7,8.8-13.5,17.6-19.5,25.8l45.1-103.4
	c0.3,0,0.4,0,0.7,0c7.9,0,25.5-3,40.1-27.1l47.6-71.2l122,167.9l125.7,233.6L258.5,502.9z M83.7,448c27.5-16.8,56.8-34.2,72.8-42.9
	c-10,14.6-28.9,38-50.5,44C98.3,451.2,90.8,450.9,83.7,448z M111.3,385.1c36.8-28.3,76.8-56.8,93.7-65.6
	c-6.8,14.2-23.3,42.3-49,55.2C134.7,385.2,119.6,386,111.3,385.1z M557.4,511.9l-208.6-6.3L543,485.1L557.4,511.9z"/>
</svg>
